<?xml version="1.0" encoding="UTF-8" standalone="no"?>
<!-- Created with Inkscape (http://www.inkscape.org/) -->

<svg
   xmlns:dc="http://purl.org/dc/elements/1.1/"
   xmlns:cc="http://creativecommons.org/ns#"
   xmlns:rdf="http://www.w3.org/1999/02/22-rdf-syntax-ns#"
   xmlns:svg="http://www.w3.org/2000/svg"
   xmlns="http://www.w3.org/2000/svg"
   xmlns:sodipodi="http://sodipodi.sourceforge.net/DTD/sodipodi-0.dtd"
   xmlns:inkscape="http://www.inkscape.org/namespaces/inkscape"
   width="400mm"
   height="300mm"
   viewBox="0 0 1417.3228 1062.9921"
   id="svg2"
   version="1.1"
   inkscape:version="0.91 r13725"
   sodipodi:docname="actual_count_time.svg">
  <defs
     id="defs4" />
  <sodipodi:namedview
     id="base"
     pagecolor="#ffffff"
     bordercolor="#666666"
     borderopacity="1.0"
     inkscape:pageopacity="0.0"
     inkscape:pageshadow="2"
     inkscape:zoom="0.58173828"
     inkscape:cx="597.81339"
     inkscape:cy="428.64167"
     inkscape:document-units="px"
     inkscape:current-layer="layer1"
     showgrid="false"
     inkscape:window-width="1280"
     inkscape:window-height="1000"
     inkscape:window-x="0"
     inkscape:window-y="24"
     inkscape:window-maximized="1" />
  <metadata
     id="metadata7">
    <rdf:RDF>
      <cc:Work
         rdf:about="">
        <dc:format>image/svg+xml</dc:format>
        <dc:type
           rdf:resource="http://purl.org/dc/dcmitype/StillImage" />
        <dc:title></dc:title>
      </cc:Work>
    </rdf:RDF>
  </metadata>
  <g
     inkscape:label="Layer 1"
     inkscape:groupmode="layer"
     id="layer1"
     transform="translate(0,10.629921)">
    <path
       style="fill:#b3b3b3;fill-opacity:1;stroke:none;stroke-width:2.26300001;stroke-miterlimit:4;stroke-dasharray:none;stroke-opacity:1"
       id="path4136"
       d="m 236.6144,241.67725 c 0.73353,38.51025 0.5941,77.03426 0.64381,115.55028 1.53371,70.67735 3.28293,141.34605 4.18436,212.03565 0.99772,72.44227 0.39381,144.8968 1.65934,217.33441 1.95322,53.97232 6.00344,107.90676 12.9711,161.4694 0,0 -18.05609,9.42893 -18.05609,9.42893 l 0,0 c -3.90709,-54.47351 -7.96738,-108.97192 -9.22259,-163.5854 -0.5732,-72.5458 0.0284,-145.09893 -1.05259,-217.64253 -1.05019,-70.40312 -2.75645,-140.79067 -5.94473,-211.13375 -0.63051,-22.128 -0.84312,-34.24594 -1.94869,-55.97221 -0.84836,-16.67159 -1.69165,-33.57156 -4.43711,-50.07254 -0.31233,-1.8772 -0.82676,-3.71513 -1.24014,-5.5727 0,0 22.44333,-11.83954 22.44333,-11.83954 z"
       inkscape:connector-curvature="0" />
    <path
       inkscape:connector-curvature="0"
       d="m 1279.2018,895.21091 c -58.4897,0.72361 -117.0002,0.58606 -175.4986,0.6351 -107.34516,1.51297 -214.67723,3.23852 -322.04104,4.12774 -110.02578,0.98424 -220.07018,0.38849 -330.08888,1.6369 -81.97351,1.92679 -163.88948,5.92222 -245.24075,12.7956 0,0 -14.32072,-17.8118 -14.32072,-17.8118 l 0,0 c 82.73471,-3.85423 165.50724,-7.85957 248.45454,-9.09781 110.18302,-0.56545 220.37718,0.028 330.55686,-1.03835 106.9287,-1.03597 213.83376,-2.71916 320.67129,-5.86429 33.6081,-0.62199 52.0129,-0.83172 85.0109,-1.92234 25.3209,-0.83688 50.9887,-1.66876 76.0505,-4.37707 2.8511,-0.3081 5.6426,-0.81558 8.4639,-1.22336 0,0 17.9819,22.13968 17.9819,22.13968 z"
       id="path4156"
       style="fill:#999999;fill-opacity:1;stroke:none;stroke-width:2.76998758;stroke-miterlimit:4;stroke-dasharray:none;stroke-opacity:1" />
    <path
       style="fill:#0000ff;fill-opacity:1;stroke:none;stroke-width:2.26300001;stroke-miterlimit:4;stroke-dasharray:none;stroke-opacity:1"
       id="path4166"
       d="m 317.67352,301.5705 c -0.69255,8.01609 2.06859,15.75142 4.47814,23.26783 5.90539,18.05313 13.50221,35.47786 20.8322,52.98058 1.42502,3.44137 2.85889,6.87908 4.27505,10.3241 4.50584,10.96107 9.02455,21.89679 13.90901,32.6973 4.99565,11.04633 5.71202,12.33189 11.04757,23.33053 8.24105,16.87435 17.22115,33.40009 27.14025,49.35106 6.92744,11.14006 9.58155,14.72438 17.06991,25.61091 13.17037,18.27534 27.404,35.77964 42.99,52.05494 10.8894,11.37099 15.66419,15.57227 27.21806,26.44105 31.24388,28.58108 65.35442,53.76576 99.73682,78.39092 31.3341,22.60552 64.7003,42.28975 99.66357,58.73358 7.12295,3.35004 14.37416,6.42028 21.56124,9.63041 28.20101,11.72087 56.91325,22.38046 86.31297,30.71526 18.12375,5.13807 24.00782,6.2123 42.30502,10.35069 38.06282,7.81445 76.61244,12.83863 115.07081,18.22395 34.20019,4.89308 68.72296,6.48781 103.22146,7.32924 18.5317,0.24888 9.5699,0.1761 26.8852,0.23651 0,0 -8.377,6.06976 -8.377,6.06976 l 0,0 c -16.9335,-0.38101 -8.1482,-0.16997 -26.3556,-0.63939 -34.3749,-1.14795 -68.78124,-2.81874 -102.86318,-7.71414 -38.29067,-5.47156 -76.65982,-10.68989 -114.52614,-18.69452 -18.35469,-4.21649 -24.03469,-5.26082 -42.20927,-10.49044 -29.34157,-8.44286 -58.00318,-19.16749 -86.15271,-30.94463 -19.52113,-8.73634 -23.77099,-10.32438 -42.8097,-20.10143 -27.418,-14.0801 -53.60051,-30.40252 -78.70919,-48.26477 -34.58028,-24.53444 -68.84969,-49.67145 -100.32764,-78.15429 -11.79968,-10.93662 -16.38263,-14.89304 -27.51078,-26.33821 -15.75412,-16.20292 -30.19035,-33.64295 -43.45493,-51.9327 -7.59052,-10.87595 -10.25966,-14.42035 -17.27481,-25.56357 -10.0213,-15.91833 -19.11756,-32.41379 -27.46938,-49.26317 -5.1238,-10.4046 -6.39679,-12.81938 -11.21774,-23.27519 -4.96413,-10.76635 -9.54811,-21.67311 -14.11526,-32.61049 -1.43352,-3.433 -2.89016,-6.8563 -4.33524,-10.28445 -7.46711,-17.43706 -15.16988,-34.7893 -21.60058,-52.64648 -2.66294,-7.43841 -5.72386,-15.02388 -5.76335,-23.03498 0,0 11.35522,-5.78577 11.35522,-5.78577 z"
       inkscape:connector-curvature="0" />
    <rect
       style="fill:#000000;fill-opacity:1;stroke:none;stroke-width:2.0770309;stroke-miterlimit:4;stroke-dasharray:none;stroke-opacity:1"
       id="rect4168"
       width="7.4790092"
       height="463.29404"
       x="364.55896"
       y="449.37781"
       ry="0.27789503" />
    <rect
       style="fill:#000000;fill-opacity:1;stroke:none;stroke-width:1.40370011;stroke-miterlimit:4;stroke-dasharray:none;stroke-opacity:1"
       id="rect4168-3"
       width="8.1523399"
       height="194.12488"
       x="606.10815"
       y="697.00446"
       ry="0.11644082" />
    <flowRoot
       xml:space="preserve"
       id="flowRoot4187"
       style="font-style:normal;font-weight:normal;font-size:40px;line-height:125%;font-family:sans-serif;letter-spacing:0px;word-spacing:0px;fill:#000000;fill-opacity:1;stroke:none;stroke-width:1px;stroke-linecap:butt;stroke-linejoin:miter;stroke-opacity:1;"
       transform="translate(21.87906,42.852374)"><flowRegion
         id="flowRegion4189"><rect
           id="rect4191"
           width="190.83455"
           height="108.1801"
           x="142.21428"
           y="136.77596"
           style="stroke:none;" /></flowRegion><flowPara
         id="flowPara4193">R' (cps)</flowPara></flowRoot>    <flowRoot
       xml:space="preserve"
       id="flowRoot4195"
       style="font-style:normal;font-weight:normal;font-size:40px;line-height:125%;font-family:sans-serif;letter-spacing:0px;word-spacing:0px;fill:#000000;fill-opacity:1;stroke:none;stroke-width:1px;stroke-linecap:butt;stroke-linejoin:miter;stroke-opacity:1;"
       transform="translate(252.82533,454.90915)"><flowRegion
         id="flowRegion4197"><rect
           id="rect4199"
           width="201.77411"
           height="126.4127"
           x="971.18988"
           y="455.23871"
           style="stroke:none;" /></flowRegion><flowPara
         id="flowPara4201">t(s)</flowPara></flowRoot>    <flowRoot
       xml:space="preserve"
       id="flowRoot4233"
       style="font-style:normal;font-weight:normal;font-size:40px;line-height:125%;font-family:sans-serif;letter-spacing:0px;word-spacing:0px;fill:#000000;fill-opacity:1;stroke:none;stroke-width:1px;stroke-linecap:butt;stroke-linejoin:miter;stroke-opacity:1;"
       transform="translate(-86.301038,-21.569482)"><flowRegion
         id="flowRegion4235"><rect
           id="rect4237"
           width="63.206348"
           height="70.49939"
           x="431.50488"
           y="929.28632"
           style="stroke:none;" /></flowRegion><flowPara
         id="flowPara4239">t</flowPara></flowRoot>    <flowRoot
       xml:space="preserve"
       id="flowRoot4249"
       style="font-style:normal;font-weight:normal;font-size:40px;line-height:125%;font-family:sans-serif;letter-spacing:0px;word-spacing:0px;fill:#000000;fill-opacity:1;stroke:none;stroke-width:1px;stroke-linecap:butt;stroke-linejoin:miter;stroke-opacity:1;"
       transform="translate(-168.95549,-42.233095)"><flowRegion
         id="flowRegion4251"><rect
           id="rect4253"
           width="156.80037"
           height="91.163002"
           x="640.57202"
           y="935.36389"
           style="stroke:none;" /></flowRegion><flowPara
         id="flowPara4255">t</flowPara></flowRoot>    <flowRoot
       xml:space="preserve"
       id="flowRoot4257"
       style="font-style:normal;font-weight:normal;font-size:40px;line-height:125%;font-family:sans-serif;letter-spacing:0px;word-spacing:0px;fill:#000000;fill-opacity:1;stroke:none;stroke-width:1px;stroke-linecap:butt;stroke-linejoin:miter;stroke-opacity:1"
       transform="translate(-288.07515,-62.896709)"><flowRegion
         id="flowRegion4259"><rect
           id="rect4261"
           width="222.43773"
           height="96.025032"
           x="780.35529"
           y="973.04456"
           style="stroke:none" /></flowRegion><flowPara
         id="flowPara4263"
         style="font-size:25px;stroke:none">0</flowPara></flowRoot>    <flowRoot
       xml:space="preserve"
       id="flowRoot4233-5"
       style="font-style:normal;font-weight:normal;font-size:40px;line-height:125%;font-family:sans-serif;letter-spacing:0px;word-spacing:0px;fill:#000000;fill-opacity:1;stroke:none;stroke-width:1px;stroke-linecap:butt;stroke-linejoin:miter;stroke-opacity:1;"
       transform="translate(180.50406,-30.380106)"><flowRegion
         id="flowRegion4235-3"><rect
           id="rect4237-5"
           width="63.206348"
           height="70.49939"
           x="431.50488"
           y="929.28632"
           style="stroke:none;" /></flowRegion><flowPara
         id="flowPara4239-6">t</flowPara></flowRoot>    <flowRoot
       xml:space="preserve"
       id="flowRoot4257-2"
       style="font-style:normal;font-weight:normal;font-size:40px;line-height:125%;font-family:sans-serif;letter-spacing:0px;word-spacing:0px;fill:#000000;fill-opacity:1;stroke:none;stroke-width:1px;stroke-linecap:butt;stroke-linejoin:miter;stroke-opacity:1;"
       transform="translate(-151.00803,-43.311292)"><flowRegion
         id="flowRegion4259-9"><rect
           id="rect4261-1"
           width="222.43773"
           height="96.025032"
           x="780.35529"
           y="973.04456"
           style="stroke:none;" /></flowRegion><flowPara
         id="flowPara4263-2"
         style="font-size:25px;stroke:none;">2</flowPara></flowRoot>    <flowRoot
       xml:space="preserve"
       id="flowRoot4257-2-7"
       style="font-style:normal;font-weight:normal;font-size:40px;line-height:125%;font-family:sans-serif;letter-spacing:0px;word-spacing:0px;fill:#000000;fill-opacity:1;stroke:none;stroke-width:1px;stroke-linecap:butt;stroke-linejoin:miter;stroke-opacity:1;"
       transform="translate(-420.22961,-38.59146)"><flowRegion
         id="flowRegion4259-9-0"><rect
           id="rect4261-1-9"
           width="222.43773"
           height="96.025032"
           x="780.35529"
           y="973.04456"
           style="stroke:none;" /></flowRegion><flowPara
         id="flowPara4263-2-3"
         style="font-size:25px;stroke:none;">1</flowPara></flowRoot>    <path
       style="fill:#ff0000;fill-opacity:1;stroke:none;stroke-width:1.52400005;stroke-miterlimit:4;stroke-dasharray:none;stroke-opacity:1"
       id="path4345"
       d="m 462.95535,547.03619 c 3.65417,-1.72251 9.91727,-5.32337 -5.76373,3.48347 -1.0022,0.56286 1.98122,-1.16612 2.96443,-1.76152 1.92235,-1.16412 7.25929,-4.4733 8.88866,-5.48132 12.97996,-7.91078 26.11395,-15.57396 39.37267,-23.00802 5.37709,-3.0149 13.66612,-7.2862 19.09613,-10.11947 23.37807,-11.79792 47.27201,-22.51924 71.11677,-33.32676 30.3577,-13.623 60.5296,-27.65053 90.62121,-41.84947 19.08576,-8.9832 37.99825,-18.33203 56.94376,-27.60729 0,0 -8.7288,6.96146 -8.7288,6.96146 l 0,0 c -18.56554,8.80016 -37.02148,17.82646 -55.62534,26.54494 -30.19642,14.19508 -60.44329,28.28252 -90.85265,42.01721 -24.06585,10.98703 -48.16323,21.92696 -71.75618,33.90941 -25.55833,13.422 5.62294,-3.01259 -19.21913,10.26627 -0.18798,0.10048 0.70907,-0.47245 0.52471,-0.36548 -6.91637,4.01333 -13.76697,8.13852 -20.56997,12.34085 -8.82126,5.56045 -17.59091,11.50808 -27.08784,15.82318 0,0 10.0753,-7.82746 10.0753,-7.82746 z"
       inkscape:connector-curvature="0" />
    <path
       style="fill:#ff0000;fill-opacity:1;stroke:none;stroke-width:1.52400005;stroke-miterlimit:4;stroke-dasharray:none;stroke-opacity:1"
       id="path4349"
       d="m 452.0167,554.7423 c 3.55089,-2.619 6.83752,-5.55612 10.07641,-8.54513 4.83271,-4.38329 9.2957,-9.12547 13.48711,-14.11848 3.20168,-4.05639 6.24958,-8.24911 8.96853,-12.64606 1.11208,-1.94065 0.62739,-1.00221 1.47955,-2.80203 0,0 11.454,-5.22954 11.454,-5.22954 l 0,0 c -0.86408,1.94783 -0.37004,0.94958 -1.50669,2.9825 -2.75776,4.50044 -5.95914,8.71112 -9.1414,12.91622 -4.17672,5.00813 -8.55221,9.83024 -13.37434,14.23382 -3.10108,2.93791 -6.20469,5.89552 -9.64118,8.44504 0,0 -11.80199,4.76366 -11.80199,4.76366 z"
       inkscape:connector-curvature="0" />
    <path
       style="fill:#ff0000;fill-opacity:1;stroke:none;stroke-width:1.52400005;stroke-miterlimit:4;stroke-dasharray:none;stroke-opacity:1"
       id="path4351"
       d="m 468.91259,544.28635 c 3.43928,-1.02851 6.46053,-3.0058 9.60432,-4.6777 4.05806,-2.11572 8.3297,-3.73873 12.74136,-4.93109 3.15315,-0.62967 6.3504,-1.0592 9.54356,-1.44337 2.90473,-0.31927 5.8273,-0.34782 8.74563,-0.38784 3.11619,-0.0143 6.23245,10e-4 9.34868,-0.005 1.84578,-0.007 0.94363,-0.003 2.70642,-0.0119 0,0 -10.2177,7.42195 -10.2177,7.42195 l 0,0 c -1.73537,-0.0122 -0.8468,-0.006 -2.66573,-0.0176 -3.11623,-0.0126 -6.23267,-0.0134 -9.34869,0.0292 -2.89273,0.0449 -5.78961,0.13749 -8.66276,0.50152 -3.12713,0.41833 -6.281,0.74884 -9.34478,1.52303 -4.34549,1.25751 -8.54399,2.95674 -12.52638,5.11244 -3.22904,1.75949 -6.44683,3.51659 -9.88081,4.85078 0,0 9.95688,-7.96456 9.95688,-7.96456 z"
       inkscape:connector-curvature="0" />
    <flowRoot
       xml:space="preserve"
       id="flowRoot4357"
       style="font-style:normal;font-weight:normal;font-size:40px;line-height:125%;font-family:sans-serif;letter-spacing:0px;word-spacing:0px;fill:#000000;fill-opacity:1;stroke:none;stroke-width:1px;stroke-linecap:butt;stroke-linejoin:miter;stroke-opacity:1"
       transform="translate(-29.172222,-22.784988)"><flowRegion
         id="flowRegion4359"><rect
           id="rect4361"
           width="323.16937"
           height="204.55934"
           x="751.1969"
           y="325.54706" /></flowRegion><flowPara
         id="flowPara4363">actual t</flowPara></flowRoot>    <flowRoot
       xml:space="preserve"
       id="flowRoot4257-6"
       style="font-style:normal;font-weight:normal;font-size:40px;line-height:125%;font-family:sans-serif;letter-spacing:0px;word-spacing:0px;fill:#000000;fill-opacity:1;stroke:none;stroke-width:1px;stroke-linecap:butt;stroke-linejoin:miter;stroke-opacity:1"
       transform="translate(93.588139,-644.84553)"><flowRegion
         id="flowRegion4259-0"><rect
           id="rect4261-6"
           width="222.43773"
           height="96.025032"
           x="780.35529"
           y="973.04456"
           style="stroke:none" /></flowRegion><flowPara
         id="flowPara4263-26"
         style="font-size:25px;stroke:none">0</flowPara></flowRoot>    <path
       style="fill:#9ba4ff;fill-opacity:1;stroke:none;stroke-width:1.52400005;stroke-miterlimit:4;stroke-dasharray:none;stroke-opacity:1"
       d="m 372.67805,689.17604 0.006,-210.14605 5.44928,9.53874 c 12.09495,21.17165 22.24383,36.53003 37.14543,56.21248 24.46046,32.30804 55.42178,63.26625 95.34472,95.33514 24.18301,19.42548 64.29163,48.91748 87.02222,63.98773 l 7.94886,5.27005 0.002,93.77502 0.002,93.77502 -96.47809,0.6603 c -53.06295,0.36316 -105.47104,0.90269 -116.46242,1.19896 l -19.98487,0.53866 0.006,-210.14605 z"
       id="path4395"
       inkscape:connector-curvature="0"
       transform="translate(-6.1035156e-5,-10.629921)" />
    <rect
       style="fill:#ff0000;fill-opacity:1;stroke:none;stroke-width:1.52400005;stroke-miterlimit:4;stroke-dasharray:none;stroke-opacity:1"
       id="rect4168-3-6"
       width="5.9367652"
       height="336.21857"
       x="-454.18848"
       y="574.92499"
       ry="0.20167208"
       transform="scale(-1,1)" />
    <rect
       style="fill:#000000;fill-opacity:1;stroke:none;stroke-width:1.13653255;stroke-miterlimit:4;stroke-dasharray:none;stroke-opacity:1"
       id="rect4168-3-6-7"
       width="3.5574808"
       height="291.63257"
       x="476.18243"
       y="606.33392"
       ry="0.17492831" />
    <path
       style="fill:#b3b3b3;fill-opacity:1;stroke:none;stroke-width:1.52400005;stroke-miterlimit:4;stroke-dasharray:none;stroke-opacity:1"
       id="path4405"
       d="m 235.85334,234.63882 c -2.17442,3.895 -3.97103,7.98599 -5.97278,11.97202 -2.4549,4.85831 -5.23855,9.53953 -7.88203,14.29569 -1.7661,3.12897 -3.56573,6.23856 -5.33564,9.36531 -1.28435,2.12638 -2.52528,4.2766 -3.82357,6.39449 -1.36439,2.37787 -2.98149,4.58479 -4.70433,6.71172 -2.05913,2.36235 -4.0904,4.74964 -6.10003,7.15425 -0.86715,1.15346 -1.80311,2.26971 -2.52573,3.52481 -0.14624,0.254 -0.26823,0.52162 -0.3861,0.78997 -0.0272,0.062 -0.0394,0.26476 -0.0477,0.19753 -0.0245,-0.19985 -0.001,-0.40269 -0.002,-0.60403 2.50025,-2.80381 10.97621,-5.94801 -7.66474,3.95121 -0.67716,0.3596 1.25892,-0.87585 1.87595,-1.33095 1.83049,-1.35012 2.39839,-1.85081 4.20128,-3.31959 4.73832,-3.72533 9.22056,-7.73854 13.58705,-11.88847 3.18397,-3.00757 6.24023,-6.14259 8.89903,-9.62694 1.68109,-2.32357 2.83281,-4.95405 3.96389,-7.57241 0.8716,-2.20395 1.65613,-4.43662 2.1325,-6.76048 0.5079,-1.96403 0.8318,-3.9655 1.27845,-5.9427 0.44856,-1.79691 0.57523,-3.64584 0.94161,-5.45747 0.42839,-1.72012 0.51042,-3.49196 0.74333,-5.24105 0.79068,-5.22906 -1.34815,-1.55443 11.69866,-6.62018 0.29212,-0.11343 0.10606,0.61779 0.15013,0.92804 0.65451,4.60838 -0.45208,-2.83021 0.32052,2.31527 0.3104,2.81575 1.00124,5.56682 1.63598,8.32153 0.64023,2.58597 1.73471,5.01756 2.86456,7.41894 1.29293,2.87454 2.60285,5.74925 3.81881,8.65851 1.35212,3.0844 2.71731,6.16163 4.19635,9.18738 1.91495,3.69797 4.44051,7.01861 6.99337,10.29057 2.66122,3.17056 5.34529,6.32377 8.07184,9.43908 1.39674,1.56977 2.85981,3.07808 4.32836,4.58016 0,0 -10.66706,6.50701 -10.66706,6.50701 l 0,0 c -1.45013,-1.53771 -2.88788,-3.08731 -4.27327,-4.68405 -2.72057,-3.137 -5.26377,-6.42416 -7.98223,-9.56383 -2.64014,-3.31924 -5.23654,-6.69354 -7.24791,-10.4433 -1.49855,-3.04136 -2.94289,-6.11226 -4.27751,-9.22921 -1.20118,-2.89189 -2.52129,-5.7429 -3.83321,-8.58459 -1.1746,-2.48358 -2.38093,-4.96812 -3.01829,-7.65604 -0.57681,-2.78529 -1.33763,-5.53562 -1.69897,-8.36208 -0.15302,-0.85268 -0.62479,-2.73986 -0.51824,-2.80232 3.68076,-2.15752 7.52806,-4.01749 11.28437,-6.04062 0.0919,-0.0495 -0.23197,0.032 -0.28969,0.11895 -0.12786,0.19267 -0.14984,0.43752 -0.22476,0.65629 -0.29231,1.75767 -0.25436,3.5617 -0.69006,5.30134 -0.40546,1.82238 -0.57567,3.6663 -0.96218,5.49405 -0.46852,1.96423 -0.7326,3.96014 -1.30102,5.90027 -0.43784,2.42432 -1.25788,4.71721 -2.08272,7.03239 -1.14147,2.72082 -2.34679,5.43602 -3.98203,7.90274 -2.64474,3.65894 -5.81066,6.86463 -9.10843,9.93942 -4.33439,4.17278 -8.78461,8.21366 -13.50746,11.94632 -1.78844,1.52099 -3.76209,3.41805 -5.76544,4.6517 -3.98846,2.45606 -8.03435,4.81796 -12.0772,7.18341 -0.41229,0.24123 -0.8244,0.50744 -1.28482,0.63466 -0.33753,0.0933 -0.70031,0.007 -1.05046,0.0106 -0.27766,-0.27321 -0.63911,-0.48177 -0.83298,-0.81964 -0.72914,-1.27069 2.25646,-4.42607 2.84015,-5.44179 1.9471,-2.4475 4.05559,-4.76998 6.07582,-7.15653 1.74395,-2.04602 3.38224,-4.16688 4.71342,-6.50969 1.27559,-2.15075 2.58924,-4.28075 3.90153,-6.4088 1.87978,-3.13483 3.68452,-6.31375 5.56818,-9.44678 2.6937,-4.75589 5.58997,-9.40365 8.02625,-14.29963 1.94349,-3.86323 3.76209,-7.794 5.37387,-11.8055 0,0 11.6354,-5.15698 11.6354,-5.15698 z"
       inkscape:connector-curvature="0" />
    <path
       style="fill:#b3b3b3;fill-opacity:1;stroke:none;stroke-width:1.52400005;stroke-miterlimit:4;stroke-dasharray:none;stroke-opacity:1"
       id="path4407"
       d="m 1200.6472,844.35208 c 5.6952,1.57521 11.0544,4.12087 16.4878,6.40264 6.1894,2.43912 12.1511,5.39485 18.0259,8.50482 3.6809,2.17192 7.5673,3.94803 11.3633,5.89842 3.0571,1.31522 6.0409,2.81518 9.1396,4.02742 3.1131,1.37013 6.29,2.55826 9.478,3.73549 4.0613,1.58036 7.9195,3.61787 11.9103,5.35753 3.4848,1.40322 7.2141,1.90928 10.8573,2.72423 2.6263,0.78334 5.0653,2.01187 7.7259,2.6822 1.7562,0.75583 4.9329,0.98058 5.3009,3.37059 0.076,0.49559 -0.1043,0.99743 -0.1564,1.49614 -0.3135,0.42643 -0.5672,0.9041 -0.9405,1.27929 -0.4255,0.42762 -0.9092,0.80595 -1.4326,1.10577 -13.5947,7.78653 -13.0281,8.69896 -23.3452,11.06243 -4.2559,0.96323 -8.6324,1.05982 -12.9751,1.14915 -3.8867,0.0647 -7.7742,0.0757 -11.6614,0.0917 -2.6906,0.21003 -5.2081,1.09694 -7.8034,1.73758 -2.9654,0.31125 -5.8856,0.84202 -8.8288,1.31034 -3.0317,0.71317 -5.9666,1.6829 -8.9195,2.6592 -3.3173,1.03379 -6.659,1.97461 -10.0166,2.86918 -2.9912,0.61548 -5.8273,1.76979 -8.6452,2.91966 -3.308,1.5616 -6.8461,2.50078 -10.3324,3.55736 -3.347,0.96311 -6.773,1.72226 -10.0505,2.90778 -0.4491,0.14536 -0.8983,0.29072 -1.3475,0.43609 0,0 14.1025,-10.93379 14.1025,-10.93379 l 0,0 c 0.4433,-0.14236 0.8867,-0.28472 1.3301,-0.42707 3.308,-0.95476 6.6325,-1.84782 9.9451,-2.78538 3.5146,-1.07576 6.9969,-2.2502 10.3538,-3.75872 2.8498,-1.10025 5.7381,-2.07874 8.7284,-2.73193 3.3323,-0.92614 6.6653,-1.84742 9.9475,-2.94222 2.9935,-1.00791 6.0253,-1.90178 9.1375,-2.46783 2.9323,-0.49245 5.8939,-0.82684 8.7925,-1.48715 2.6203,-0.71035 5.2721,-1.32889 8.0071,-1.32008 3.824,0.036 7.6486,0.0739 11.4721,-0.0215 4.2884,-0.15538 8.5943,-0.39628 12.7713,-1.46387 1.4345,-0.37614 2.773,-0.70635 4.1858,-1.15934 0.6756,-0.21662 2.6083,-1.08303 2.0088,-0.70352 -23.1707,14.66932 -16.218,9.34339 -10.8482,6.52396 2.675,-0.95446 -2.9006,-1.7015 -3.5352,-2.1692 -2.5643,-0.81687 -4.9978,-1.99813 -7.6185,-2.64562 -3.6667,-0.87845 -7.4025,-1.54919 -10.8559,-3.13694 -3.9594,-1.81122 -7.8933,-3.70136 -12.0104,-5.13661 -3.2061,-1.1409 -6.2994,-2.55276 -9.4556,-3.82239 -3.1284,-1.28359 -6.2324,-2.64911 -9.2609,-4.15324 -3.7564,-1.96497 -7.5142,-3.9287 -11.1782,-6.06352 -5.71,-3.2072 -11.5598,-6.13784 -17.6683,-8.52029 -5.4881,-2.24575 -10.9794,-4.83309 -16.9109,-5.62702 0,0 14.7257,-10.33168 14.7257,-10.33168 z"
       inkscape:connector-curvature="0" />
  </g>
</svg>
