<?xml version="1.0" encoding="UTF-8" standalone="no"?>
<!-- Created with Inkscape (http://www.inkscape.org/) -->

<svg
   xmlns:dc="http://purl.org/dc/elements/1.1/"
   xmlns:cc="http://creativecommons.org/ns#"
   xmlns:rdf="http://www.w3.org/1999/02/22-rdf-syntax-ns#"
   xmlns:svg="http://www.w3.org/2000/svg"
   xmlns="http://www.w3.org/2000/svg"
   xmlns:sodipodi="http://sodipodi.sourceforge.net/DTD/sodipodi-0.dtd"
   xmlns:inkscape="http://www.inkscape.org/namespaces/inkscape"
   width="400mm"
   height="300mm"
   viewBox="0 0 1417.3228 1062.9921"
   id="svg2"
   version="1.1"
   inkscape:version="0.91 r13725"
   sodipodi:docname="large_geometry_factor.svg"
   inkscape:export-filename="/home/gold/PycharmProjects/subcrit_reactor_n_flow/large_geometry_factor.png"
   inkscape:export-xdpi="25.4"
   inkscape:export-ydpi="25.4">
  <defs
     id="defs4" />
  <sodipodi:namedview
     id="base"
     pagecolor="#ffffff"
     bordercolor="#666666"
     borderopacity="1.0"
     inkscape:pageopacity="0.0"
     inkscape:pageshadow="2"
     inkscape:zoom="0.41135108"
     inkscape:cx="826.73652"
     inkscape:cy="358.12634"
     inkscape:document-units="px"
     inkscape:current-layer="layer1"
     showgrid="false"
     inkscape:window-width="1309"
     inkscape:window-height="744"
     inkscape:window-x="57"
     inkscape:window-y="24"
     inkscape:window-maximized="1" />
  <metadata
     id="metadata7">
    <rdf:RDF>
      <cc:Work
         rdf:about="">
        <dc:format>image/svg+xml</dc:format>
        <dc:type
           rdf:resource="http://purl.org/dc/dcmitype/StillImage" />
        <dc:title />
      </cc:Work>
    </rdf:RDF>
  </metadata>
  <g
     inkscape:label="Layer 1"
     inkscape:groupmode="layer"
     id="layer1"
     transform="translate(0,10.629921)">
    <path
       style="fill:#808080;fill-opacity:1;stroke:none;stroke-width:2.26300001;stroke-miterlimit:4;stroke-dasharray:none;stroke-opacity:1"
       d="m 943.06488,1.9356397 c -1.12636,0.0187 -2.2553,0.0649 -3.38476,0.14063 -14.09929,0.1631 -28.19869,0.18591 -42.29883,0.16601 -13.98551,-0.0244 -27.97164,-0.10174 -41.95703,-0.12304 -13.82235,-0.004 -27.64444,0.1502 -41.4668,0.1582 -16.42411,0.0648 -32.84739,-0.002 -49.27149,-0.0391 -14.84288,-0.0685 -29.68637,-0.0122 -44.52929,0.0254 -17.92058,0.0954 -35.84105,0.11501 -53.76172,0.19531 -19.73175,0.035 -39.46199,-0.0422 -59.19336,-0.16211 -16.68967,-0.0575 -33.38059,0.0299 -50.07031,0.0566 -18.26157,0.0321 -36.52169,0.0132 -54.78322,-0.0449 -16.91232,4e-4 -33.82599,-0.0842 -50.73828,-0.0605 -16.9323,0.0702 -33.86073,0.35738 -50.77148,1.28907 -19.5746,1.0753 -39.1257,2.55474 -58.6543,4.2539 -24.87397,3.1315703 -42.78607,7.5419503 -64.18944,26.6777403 -4.14297,5.9973 -3.58063,10.52067 -1.32813,17.18164 2.35039,8.05997 2.67119,16.33777 2.86524,24.705066 1.89511,40.147644 3.21764,80.319214 3.76172,120.509774 1.47858,92.38428 1.81931,184.78148 1.13867,277.17578 -0.57874,83.96881 -0.96067,167.97989 -5.03711,251.86915 -2.50064,39.21695 -4.34778,79.05858 -15.66211,116.95508 l 8.19727,-3.9043 c 8.60204,-0.24025 17.20774,-0.23845 25.8125,-0.26172 10.85139,-0.0471 21.70316,-0.0291 32.55467,-0.008 8.72101,0.0597 17.44304,0.0609 26.16407,0.11719 7.56223,0.37899 15.04647,-0.53964 22.5371,-1.41211 7.62047,-0.84479 15.29245,-1.01981 22.95118,-1.17188 7.1564,-0.0631 14.31214,-0.0268 21.46875,-0.0527 7.5575,0.003 15.1144,-0.0203 22.67187,0.0137 6.59728,0.0453 13.19556,0.0231 19.79297,0.0449 5.61873,0.0219 11.23671,0.0331 16.85547,0.0391 5.9228,-0.0287 11.84661,-0.0357 17.76953,-0.0234 5.44829,0.0564 10.8963,-0.2379 16.3047,0.51562 5.22784,1.02019 10.55224,1.34284 15.77148,2.38868 5.24853,1.24996 10.60265,1.83377 15.97656,2.16406 5.28427,0.25376 10.57624,0.24695 15.86524,0.25195 3.59314,-0.002 1.75759,-0.0374 5.50391,0.11524 l 7.6289,-5.42188 c 4.33574,-0.008 8.67208,-0.0166 13.00781,-0.0234 5.76281,-2e-4 11.52621,0.0548 17.28907,0.0234 5.95038,-0.0125 11.89923,-0.0362 17.84961,-0.0156 5.36209,0.0444 10.72566,0.005 16.08789,0.008 5.24229,0.002 10.48564,-0.01 15.72461,0.20312 5.28547,0.28016 10.55581,0.79095 15.73632,1.92383 5.4588,0.9949 11.05033,0.31347 16.57227,0.82617 6.61818,0.45706 13.19528,1.28444 19.71875,2.50391 5.52296,0.27304 11.03275,0.75378 16.44531,1.94727 5.2373,0.95136 10.58681,0.31317 15.89063,0.61718 5.25447,0.18551 10.51433,0.50395 15.68554,1.51758 5.31387,0.99692 10.55244,1.23635 15.96875,1.01953 5.2226,0.0597 10.4583,0.13822 15.64844,0.78321 5.31392,0.75023 10.50142,2.2254 15.89844,2.1875 5.72759,0.5145 11.35948,1.54441 16.89844,3.11328 6.17007,0.73824 12.27658,2.16424 18.51953,1.79296 5.83336,-0.008 11.66671,0.0324 17.5,0.0234 6.03569,-0.0126 12.07175,-0.038 18.10742,-0.0625 7.46938,-0.0166 14.93696,-0.0571 22.40625,-0.10547 10.90473,-0.1084 21.81218,-0.146 32.7168,-0.0117 13.58924,0.27067 27.20422,0.70836 40.68161,2.60936 10.6238,1.53136 21.2536,3.11072 32.02339,2.94922 6.7622,0.28301 13.5763,0.55838 20.2129,1.99219 l 0,-0.002 8.1719,-5.69531 c 0.241,1.10279 0.4902,2.20577 0.748,3.30859 l 34.0743,-18.36717 c -0.935,-3.93739 -1.6752,-7.8977 -2.4258,-11.87305 -1.5877,-6.75345 -3.324,-13.47691 -4.5196,-20.31641 -1.0409,-7.40616 -2.4092,-14.75828 -3.4472,-22.16406 -1.2481,-7.66217 -1.6126,-15.41991 -2.9082,-23.08008 -1.4144,-8.59898 -2.1219,-17.2945 -3.8164,-25.84961 -1.3042,-8.8418 -2.1324,-17.74861 -1.8965,-26.69726 -0.1567,-12.68778 -0.1888,-25.37786 -0.1348,-38.06641 0.047,-12.37445 0.1077,-24.74849 0.098,-37.12305 0.051,-11.82826 -0.062,-23.65605 -0.062,-35.48438 -0.1466,-14.59497 -0.2404,-29.19115 -0.1934,-43.78711 0,-15.86158 0,-31.72247 -0.057,-47.58398 -0.08,-17.06587 -0.025,-34.13313 -0.035,-51.19922 -0.054,-17.59372 -0.064,-35.18768 -0.1523,-52.78125 -0.039,-19.50949 -0.059,-39.02546 0.5527,-58.52735 0.781,-18.98989 2.1723,-37.93684 4.7676,-56.77539 2.0826,-19.47427 4.9356,-38.86646 6.4316,-58.40234 1.3899,-17.58944 1.9379,-35.20257 1.6719,-52.84766 -0.08,-16.38164 -0.105,-32.76458 -0.082,-49.14648 0.087,-15.11828 0.068,-30.236444 0.4414,-45.351564 0.293,-12.25625 0.6719,-24.516596 1.9004,-36.722656 0.9647,-10.00451 2.8115,-20.67588 -1.4727,-30.1582 -0.8378,-0.99674 -1.5062,-2.16548 -2.5137,-2.99024 -4.4293,-3.62585 -11.309,-1.38115 -16.4511,-1.9707 -7.2013,-0.11559 -14.4093,-0.35743 -21.5645,-1.23828 -8.715,-1.09733 -17.3849,-2.3128203 -26.14839,-2.9863303 -9.53,-1.34903 -19.0145,-2.98708 -28.5137,-4.52539 -7.84667,-0.72681 -15.66227,-1.87302 -23.54683,-1.74219 z M 318.79925,17.42197 c 0.004,0.0778 -2.83446,1.53969 -7.22461,3.94336 0.57323,-0.58286 1.25448,-1.16983 2.09179,-1.76953 3.55627,-1.54308 5.12943,-2.23362 5.13282,-2.17383 z m 317.96485,6.56641 c 17.74196,0.0805 35.48272,0.0995 53.22461,0.19531 14.81976,0.0387 29.63925,0.0929 44.45898,0.0254 16.45987,-0.036 32.92101,-0.10476 49.38086,-0.0391 13.67738,0.008 27.35389,0.16025 41.03125,0.15625 14.09823,-0.0215 28.19655,-0.0966 42.29493,-0.12109 13.94682,-0.0184 27.89391,-8.6e-4 41.83984,0.16601 8.82447,-0.33554 17.56597,0.6341 26.31836,1.57227 9.57569,1.22905 19.11341,2.69601 28.64844,4.20312 8.65854,1.10282 17.33454,1.99316 25.98234,3.18555 7.1922,1.1407 14.45269,1.46136 21.71879,1.64844 4.4412,0.86433 11.3837,-1.26063 15.4394,0.95898 0.6575,0.35983 1.1042,1.01265 1.6563,1.51953 3.1891,8.59951 1.3601,18.08173 0.6367,26.97461 -1.1015,12.274556 -1.5164,24.595836 -1.6992,36.91406 -0.022,15.05161 0.018,30.10463 0.1074,45.15625 0.036,16.40348 0.026,32.80765 -0.045,49.21094 0.3205,17.47892 0.03,34.92448 -1.3399,52.35351 -1.4763,19.51401 -4.3486,38.88342 -6.5293,58.32422 -2.758,18.88093 -3.9087,37.90685 -4.5371,56.95899 -0.5201,19.5646 -0.5433,39.13524 -0.6113,58.70508 -0.08,17.63506 -0.047,35.27103 -0.08,52.90625 0.01,17.07297 0.066,34.14595 -0.012,51.21875 -0.058,15.88082 -0.056,31.76166 -0.057,47.64257 0.047,14.6618 -0.048,29.32357 -0.1934,43.98438 0.01,11.84929 -0.1145,23.69767 -0.062,35.54687 -0.01,12.34143 0.049,24.68213 0.096,37.02345 0.055,12.73464 0.02,25.47119 -0.1347,38.20508 -0.4421,9.1876 0.3232,18.33532 1.9082,27.38086 1.6116,8.57748 2.4107,17.25549 3.7578,25.87305 1.1173,7.71218 1.5387,15.46585 2.748,23.16406 0.9297,7.38636 2.5494,14.646 3.4844,22.0332 0.5781,3.56159 1.3593,7.07543 2.1836,10.58008 -8.5543,-0.25044 -17.0598,-1.12333 -25.5508,-2.2832 -13.62659,-1.90313 -27.38999,-2.39036 -41.12495,-2.82227 -10.73408,-0.32567 -21.47133,-0.37736 -32.20898,-0.47656 -7.39856,-0.0308 -14.79673,-0.0458 -22.19531,-0.0508 -5.98277,-0.0156 -11.96643,-0.0385 -17.94922,-0.0508 -5.85351,-0.008 -11.70698,0.0324 -17.56055,0.0234 -6.14344,0.34674 -12.18769,-0.5549 -18.25,-1.38086 -5.62193,-1.08562 -11.15844,-2.47177 -16.8418,-3.22851 -5.33311,-0.21214 -10.54867,-1.18209 -15.79687,-2.0625 -5.27272,-0.86143 -10.61399,-1.07891 -15.94531,-1.21289 -5.23139,-0.12475 -10.45877,0.1646 -15.65235,-0.5586 -5.26766,-0.99967 -10.58996,-1.56911 -15.9375,-1.88672 -5.23975,-0.31197 -10.49331,-0.1159 -15.73242,-0.38867 -5.53752,-0.93854 -11.07277,-1.69438 -16.67773,-2.07031 -6.57401,-0.61498 -13.07627,-1.77519 -19.64844,-2.43164 -5.45258,-0.5692 -10.94015,-0.43228 -16.4043,-0.75781 -5.26769,-0.86399 -10.53111,-1.67097 -15.85351,-2.10742 -5.28283,-0.36355 -10.58025,-0.38541 -15.87305,-0.40821 -5.3886,-0.002 -10.77764,-0.0191 -16.16602,0.0332 -5.93962,0.0283 -11.87872,0.007 -17.81836,-0.004 -5.7832,-0.0308 -11.56642,0.0217 -17.3496,0.0215 -5.70414,-0.009 -11.4072,-0.0213 -17.11133,-0.0293 -5.30012,-0.005 -10.60027,-0.007 -15.90039,-0.008 -5.26557,-2.1e-4 -10.53131,-8e-5 -15.79688,0 -5.26969,8e-5 -10.54086,0.002 -15.81055,0.002 -3.59383,0.0159 -7.18268,0.0298 -10.77343,-0.1211 l -0.92383,0.65625 c -4.54307,-0.6106 -9.07126,-0.71297 -13.71289,-0.50976 -5.90211,0.0118 -11.80311,0.006 -17.70508,-0.0234 -5.65411,0.006 -11.30883,0.0172 -16.9629,0.0391 -6.63675,0.0218 -13.27351,-9.8e-4 -19.91016,0.041 -7.55779,0.0301 -15.11603,0.002 -22.67383,-0.01 -7.18307,-0.0375 -14.36597,-0.031 -21.54882,0.0449 -7.71513,0.0541 -15.42934,0.235 -23.12305,0.85351 -7.43851,0.72144 -14.81304,2.22634 -22.32227,1.76172 -8.82931,0.0559 -17.65899,0.0598 -26.48828,0.11914 -10.84426,0.021 -21.68713,0.0394 -32.53125,-0.008 -8.47964,-0.0232 -16.96299,-0.0141 -25.43944,-0.27149 l -3.33008,2.41993 c 5.3869,-35.19589 6.12004,-70.89103 7.16015,-106.43165 1.54417,-83.26068 0.94935,-166.54598 0.70703,-249.81641 -0.4955,-92.78172 -0.25882,-185.56512 1.125,-278.33789 0.5223,-41.45158 1.82856,-82.88489 3.67187,-124.29688 0.95713,-9.02072 0.62796,-17.73981 -1.8164,-26.44921 -0.28276,-0.92805 -0.5228,-1.77567 -0.73438,-2.58985 0.80745,-0.13067 1.61469,-0.26414 2.42188,-0.39453 19.58938,-2.32937 39.28025,-3.81802 58.97656,-4.89844 16.70837,-0.79378 33.43974,-0.94859 50.16406,-1.06836 16.96615,-0.0813 33.93212,-0.10913 50.89844,-0.0859 18.28739,-0.0331 36.57588,-0.0465 54.86329,-0.01 16.63681,0.0307 33.27338,0.11735 49.91016,0.0606 19.87946,-0.11859 39.75883,-0.19741 59.63867,-0.16211 z"
       id="path4145"
       inkscape:connector-curvature="0"
       inkscape:export-xdpi="25.4"
       inkscape:export-ydpi="25.4" />
    <path
       style="fill:#cccccc;fill-opacity:1;stroke:none;stroke-width:2.26300001;stroke-miterlimit:4;stroke-dasharray:none;stroke-opacity:1"
       d="m 985.72471,833.28833 c -10.0279,-0.9461 -43.39356,-1.88991 -74.14588,-2.09735 -30.75232,-0.20737 -60.69856,-1.48044 -66.54724,-2.8289 -5.84865,-1.34843 -30.46266,-4.01207 -54.6978,-5.9192 -24.23511,-1.90713 -63.75508,-5.25029 -87.82211,-7.42923 -44.93378,-4.06815 -140.36822,-3.93012 -331.51535,0.47952 -69.59619,1.60556 -71.35988,1.52979 -69.92851,-3.00403 4.75189,-15.05137 6.55084,-95.68262 6.49053,-290.91242 -0.0367,-118.66905 1.21679,-271.82289 2.78546,-340.34187 1.56867,-68.51898 2.64669,-130.193511 2.3956,-137.054501 -0.43193,-11.80252 -0.095,-12.55143 6.25433,-13.90209 22.85553,-4.86194 153.70779,-6.87459 372.57838,-5.73066 221.9622,1.16009 239.41821,1.55894 274.70449,6.27663 20.7244,2.7708 43.15049,5.34038 49.83579,5.71018 l 12.1551,0.67237 -0.7727,99.671551 c -0.6499,83.8455 -1.684,108.35657 -6.5124,154.36935 -5.361,51.08847 -5.8301,67.48192 -7.1084,248.43564 l -1.3687,193.73782 6.1816,45.717 c 3.3999,25.14434 6.7915,48.17839 7.5369,51.18676 1.2745,5.144 0.6518,5.44637 -10.4556,5.07671 -6.496,-0.21611 -20.01549,-1.16717 -30.04349,-2.11328 z"
       id="path4213"
       inkscape:connector-curvature="0"
       inkscape:export-xdpi="25.4"
       inkscape:export-ydpi="25.4" />
    <ellipse
       style="fill:#ff0000;fill-opacity:1;stroke:none;stroke-width:2.26300001;stroke-miterlimit:4;stroke-dasharray:none;stroke-opacity:1"
       id="path4151"
       cx="645.26398"
       cy="952.3866"
       rx="39.528461"
       ry="34.257999"
       inkscape:export-xdpi="25.4"
       inkscape:export-ydpi="25.4" />
    <path
       inkscape:connector-curvature="0"
       id="path4172"
       d="m 565.8534,91.004136 -7.37764,24.526684 c 4.37243,33.50567 2.03569,15.59574 7.02657,53.7438 14.09683,105.27825 27.77742,210.58397 40.87477,315.93287 7.7,61.73476 15.71221,123.44564 23.2587,185.19073 4.58101,37.48219 7.08657,55.88398 9.8584,88.66506 -0.53585,0.0748 -1.07084,0.16936 -1.60919,0.22225 -1.13111,0.10287 -1.08315,0.10655 -2.21632,0.17682 -0.36159,0.0224 -1.4466,0.067 -1.086,0.0598 3.58319,-0.0797 3.26454,-0.073 4.94746,-0.11145 0.006,0.0745 0.0139,0.14502 0.0202,0.22003 l -7.68376,1.01372 c 2.56633,0.0872 5.16477,0.0901 7.76954,-0.003 0.27625,3.30971 0.54219,5.9819 0.8273,9.63823 1.08133,13.86227 1.67408,27.74033 2.51008,41.61184 0.50916,37.07576 1.00858,74.15928 0.29306,111.23499 -1.32972,4.1535 -2.60364,8.31682 -3.96959,12.46419 l 3.84582,-6.0434 c -0.0665,2.81955 -0.0751,5.63879 -0.15793,8.45827 l 4.85201,-15.82659 9.70373,-15.24034 c 10.82419,-38.081 21.02094,-76.26167 31.27378,-114.42928 2.11293,-9.64172 4.29437,-19.27444 6.38494,-28.91873 l 4.30683,-0.45275 c -0.88569,-0.3645 -0.43749,-0.17804 -1.34743,-0.55042 -0.83674,-0.34164 -1.6898,-0.66503 -2.53192,-1.00082 0.62503,-2.91325 1.29226,-5.82213 1.88109,-8.73953 8.15513,-40.40761 9.95673,-54.83681 16.62692,-96.42135 9.69578,-60.44794 19.25637,-120.90794 29.24694,-181.32987 17.76129,-107.32359 37.00902,-214.50747 56.35422,-321.68067 7.7532,-40.49866 4.02989,-21.42052 11.12558,-57.238594 l -14.3498,22.781424 c -5.49644,33.41541 -2.56238,15.54753 -8.80803,53.59477 -16.92057,105.05142 -34.24832,210.06605 -52.16561,315.02783 -10.47519,61.51182 -20.63859,123.05081 -31.26678,184.54832 -6.38193,36.92753 -9.3136,55.32624 -15.99948,87.11303 -0.10236,-0.0261 -0.19987,-0.0586 -0.3035,-0.0822 -2.26182,-0.74383 -4.62436,-1.30438 -7.00413,-1.86273 -2.44869,-0.4953 -4.88662,-1.01529 -7.43875,-1.28292 -5.19948,-0.49811 -10.69616,0.15054 -15.97945,0.18376 -2.22438,0.15869 -4.45243,0.37933 -6.66701,0.72924 -1.24901,0.20835 -2.48104,0.48721 -3.71952,0.73801 -0.20324,-2.45448 -0.36762,-4.91129 -0.59711,-7.36456 -3.8141,-40.75625 -6.26001,-55.1381 -11.86737,-96.80801 C 626.54392,592.92053 618.25613,532.36377 610.40049,471.77033 596.46237,364.13969 584.01995,256.40436 571.67257,148.669 567.43922,107.88773 569.36613,127.11054 565.85412,91.004536 Z M 647.35383,760.0818 c 0.0479,-0.005 0.0969,-0.008 0.14477,-0.0123 2.21971,-0.26152 4.40559,-0.73318 6.58978,-1.19434 2.12277,-0.5194 4.27626,-0.87066 6.4331,-1.22551 0.98884,-0.14548 1.97788,-0.25072 2.96761,-0.34425 0.0801,0.005 0.16092,0.001 0.24192,0.008 2.55964,0.19247 5.0019,0.68405 7.43435,1.17305 2.37858,0.51882 4.72901,1.07708 6.99874,1.77336 1.86685,0.53901 3.75411,1.03687 5.57728,1.63978 1.26273,0.42411 2.46923,0.91964 3.67615,1.41261 -0.59922,2.81386 -1.02742,5.01711 -1.69395,8.07831 -2.9848,13.70941 -6.45696,27.35925 -9.68382,41.03873 -7.77057,27.35059 -15.54479,54.70551 -23.80839,81.97798 -0.58897,-34.66517 -1.60093,-69.32743 -2.59226,-103.9878 -0.77442,-10.11055 -1.47561,-20.22512 -2.2848,-30.33405 z"
       style="fill:#ff0000;fill-opacity:1;stroke:none;stroke-width:2.26300001;stroke-miterlimit:4;stroke-dasharray:none;stroke-opacity:1"
       inkscape:export-xdpi="25.4"
       inkscape:export-ydpi="25.4" />
    <path
       style="fill:#ff0000;fill-opacity:1;stroke:none;stroke-width:2.26300001;stroke-miterlimit:4;stroke-dasharray:none;stroke-opacity:1"
       d="m 1361.4407,485.38353 -25.1698,4.74016 c -27.7323,19.3045 -12.9082,8.98601 -44.4773,30.97645 -86.973,60.97471 -174.1621,121.59255 -261.658,181.71249 -51.26129,35.25257 -102.35775,70.77132 -153.69894,105.89236 -31.16656,21.32008 -46.34963,32.01485 -74.17551,49.56487 -0.31305,-0.44128 -0.64325,-0.8727 -0.93802,-1.32627 -0.61198,-0.95681 -0.59316,-0.91254 -1.17716,-1.88617 -0.18632,-0.3107 -0.72535,-1.2534 -0.55297,-0.93659 1.72012,3.14434 1.56749,2.86453 2.37628,4.34086 -0.0634,0.0396 -0.12238,0.0791 -0.18604,0.11922 l -4.43681,-6.35473 c 1.10388,2.31843 2.29739,4.62656 3.57902,6.89611 -2.81108,1.76873 -5.06092,3.23484 -8.17563,5.17097 -11.80864,7.34084 -23.85619,14.2552 -35.78597,21.38249 -32.68003,17.51817 -65.37145,35.03127 -98.61517,51.46219 -4.29939,0.7314 -8.58181,1.51686 -12.89245,2.21327 l 7.13536,0.63237 c -2.5337,1.23881 -5.04048,2.52889 -7.58163,3.75318 l 16.28364,-2.97764 17.99645,1.59939 c 38.78925,-7.91957 77.37817,-16.44205 115.98131,-24.90872 9.53214,-2.56236 19.08782,-5.05975 28.61194,-7.64313 l 2.38439,3.61502 c -0.0841,-0.95406 -0.0433,-0.47033 -0.13159,-1.44955 -0.0819,-0.90009 -0.18744,-1.80626 -0.27697,-2.70842 2.87397,-0.78611 5.7635,-1.53274 8.62449,-2.3529 39.62614,-11.36001 53.26511,-16.40245 93.25255,-29.62249 58.12634,-19.21695 116.20113,-38.55946 174.44013,-57.50274 103.4533,-33.6338 207.4667,-65.88369 311.5156,-98.04214 39.522,-11.75872 20.8713,-6.28238 55.9353,-16.47034 l -26.8297,-2.25278 c -32.1949,10.50174 -14.982,4.88181 -51.6338,16.8505 -101.0491,33.33427 -202.253,66.29013 -303.6813,98.69829 -59.4296,19.01473 -118.73989,38.31875 -178.22712,57.19106 -35.72046,11.3323 -53.40357,17.1987 -84.70019,25.89485 -0.024,-0.10293 -0.0399,-0.2044 -0.0667,-0.30727 -0.38078,-2.35035 -0.97063,-4.70574 -1.57037,-7.07542 -0.68743,-2.40184 -1.348,-4.8055 -2.28517,-7.19436 -1.95115,-4.84518 -5.05714,-9.42635 -7.51855,-14.10135 -1.16478,-1.90167 -2.38623,-3.77809 -3.71625,-5.58304 -0.75989,-1.01292 -1.57456,-1.9783 -2.36729,-2.96233 2.08544,-1.31024 4.19083,-2.58705 6.26312,-3.92004 34.42615,-22.14631 46.06793,-30.93772 80.47975,-55.09659 50.02152,-35.11784 99.96648,-70.34999 150.14297,-105.21538 89.1346,-61.91662 179.0504,-122.55363 269.0101,-183.10626 34.2554,-22.53003 18.0771,-11.97104 48.514,-31.70863 z M 804.97479,865.71616 c 0.0265,0.0402 0.0517,0.0824 0.0776,0.12282 1.25391,1.85019 2.6788,3.57362 4.0936,5.30038 1.43822,1.64544 2.74132,3.39554 4.04914,5.14696 0.58432,0.81088 1.13301,1.64047 1.67162,2.47606 0.0324,0.0734 0.0732,0.14332 0.10426,0.21845 1.00734,2.36095 1.69512,4.75536 2.38068,7.13989 0.63427,2.35043 1.22059,4.69401 1.64723,7.02949 0.38081,1.90543 0.80755,3.81003 1.11152,5.70609 0.20473,1.31622 0.32018,2.6154 0.43809,3.91378 -2.77386,0.76326 -4.92693,1.39729 -7.95135,2.21466 -13.54459,3.66072 -27.26064,6.86136 -40.89008,10.29341 -27.85762,5.6912 -55.72076,11.38116 -83.73596,16.59871 30.50327,-16.47941 60.80926,-33.333 91.12306,-50.1674 8.61929,-5.34144 17.27584,-10.61971 25.87768,-15.99127 z"
       id="path4215"
       inkscape:connector-curvature="0"
       inkscape:export-xdpi="25.4"
       inkscape:export-ydpi="25.4" />
    <flowRoot
       xml:space="preserve"
       id="flowRoot4174-3"
       style="font-style:normal;font-weight:normal;font-size:40px;line-height:125%;font-family:sans-serif;letter-spacing:0px;word-spacing:0px;fill:#000000;fill-opacity:1;stroke:none;stroke-width:1px;stroke-linecap:butt;stroke-linejoin:miter;stroke-opacity:1"
       transform="matrix(1.5330146,0,0,1.5330146,722.63186,339.46217)"
       inkscape:export-xdpi="25.4"
       inkscape:export-ydpi="25.4"><flowRegion
         id="flowRegion4176-6"><rect
           id="rect4178-7"
           width="194.24542"
           height="156.42773"
           x="72.197418"
           y="315.23312" /></flowRegion><flowPara
         id="flowPara4180-5">φ</flowPara></flowRoot>    <flowRoot
       xml:space="preserve"
       id="flowRoot4174"
       style="font-style:normal;font-weight:normal;font-size:40px;line-height:125%;font-family:sans-serif;letter-spacing:0px;word-spacing:0px;fill:#000000;fill-opacity:1;stroke:none;stroke-width:1px;stroke-linecap:butt;stroke-linejoin:miter;stroke-opacity:1"
       transform="matrix(1.5330146,0,0,1.5330146,532.15319,171.30936)"
       inkscape:export-xdpi="25.4"
       inkscape:export-ydpi="25.4"><flowRegion
         id="flowRegion4176"><rect
           id="rect4178"
           width="194.24542"
           height="156.42773"
           x="72.197418"
           y="315.23312" /></flowRegion><flowPara
         id="flowPara4180">φ</flowPara></flowRoot>    <flowRoot
       xml:space="preserve"
       id="flowRoot4236"
       style="font-style:normal;font-weight:normal;font-size:40px;line-height:125%;font-family:sans-serif;letter-spacing:0px;word-spacing:0px;fill:#000000;fill-opacity:1;stroke:none;stroke-width:1px;stroke-linecap:butt;stroke-linejoin:miter;stroke-opacity:1"
       transform="translate(1242.2478,480.43479)"
       inkscape:export-xdpi="25.4"
       inkscape:export-ydpi="25.4"><flowRegion
         id="flowRegion4238"><rect
           id="rect4240"
           width="167.73993"
           height="204.20512"
           x="43.75824"
           y="100.31075" /></flowRegion><flowPara
         id="flowPara4242"
         style="font-size:60px">2</flowPara></flowRoot>    <flowRoot
       transform="translate(612.61531,37.990348)"
       style="font-style:normal;font-weight:normal;font-size:40px;line-height:125%;font-family:sans-serif;letter-spacing:0px;word-spacing:0px;fill:#000000;fill-opacity:1;stroke:none;stroke-width:1px;stroke-linecap:butt;stroke-linejoin:miter;stroke-opacity:1"
       id="flowRoot4244"
       xml:space="preserve"
       inkscape:export-xdpi="25.4"
       inkscape:export-ydpi="25.4"><flowRegion
         id="flowRegion4246"><rect
           y="100.31075"
           x="43.75824"
           height="204.20512"
           width="167.73993"
           id="rect4248" /></flowRegion><flowPara
         style="font-size:60px"
         id="flowPara4250">1</flowPara></flowRoot>    <flowRoot
       xml:space="preserve"
       id="flowRoot4271"
       style="font-style:normal;font-weight:normal;font-size:40px;line-height:125%;font-family:sans-serif;letter-spacing:0px;word-spacing:0px;fill:#000000;fill-opacity:1;stroke:none;stroke-width:1px;stroke-linecap:butt;stroke-linejoin:miter;stroke-opacity:1"
       transform="matrix(1.3296677,0,0,1.7231833,-109.32863,-723.85419)"
       inkscape:export-xdpi="25.4"
       inkscape:export-ydpi="25.4"><flowRegion
         id="flowRegion4273"><rect
           id="rect4275"
           width="296.58365"
           height="99.671547"
           x="476.47864"
           y="982.76862" /></flowRegion><flowPara
         id="flowPara4277">Source</flowPara></flowRoot>  </g>
</svg>
